<svg width="48" height="48" viewBox="0 0 48 48" fill="none" xmlns="http://www.w3.org/2000/svg">
<path d="M47.6162 34.7328C47.1554 34.2048 46.3818 34.0096 45.701 34.2368C43.7926 34.8736 41.7226 35.2 39.5426 35.2C29.1137 35.2 20.6309 27.3024 20.6309 17.6C20.6309 11.76 23.729 6.3232 28.9177 3.0528C29.5057 2.6816 29.7876 2.0128 29.6295 1.3696C29.4713 0.7264 28.9039 0.24 28.1991 0.144C27.3944 0.0352002 26.5933 0 25.7887 0C11.5671 0 0 10.7648 0 24C0 37.2352 11.5671 48 25.7887 48C34.8147 48 43.0258 43.7312 47.7469 36.5824C48.1285 36.0032 48.0735 35.264 47.6162 34.7328Z" fill="#B0BEC5"/>
</svg>
