<svg width="64" height="64" viewBox="0 0 64 64" fill="none" xmlns="http://www.w3.org/2000/svg">
<g opacity="0.3">
<path d="M44.8 29.44C44.7181 29.44 44.6362 29.44 44.5491 29.4426C43.3562 23.5213 38.1671 19.2 32 19.2C26.8775 19.2 22.2797 22.249 20.265 26.8826C15.424 26.9978 11.52 30.9709 11.52 35.84C11.52 40.7808 15.5392 44.8 20.48 44.8H44.8C49.0343 44.8 52.48 41.3543 52.48 37.12C52.48 32.8858 49.0343 29.44 44.8 29.44Z" fill="#57A0EE"/>
<path d="M50.0674 47.3206H16.7874C16.0809 47.3206 15.5074 47.894 15.5074 48.6006C15.5074 49.3071 16.0809 49.8806 16.7874 49.8806H50.0674C50.774 49.8806 51.3474 49.3071 51.3474 48.6006C51.3474 47.894 50.774 47.3206 50.0674 47.3206Z" fill="#607D8B"/>
<path d="M50.0674 52.4406H16.7874C16.0809 52.4406 15.5074 53.014 15.5074 53.7206C15.5074 54.4271 16.0809 55.0006 16.7874 55.0006H50.0674C50.774 55.0006 51.3474 54.4271 51.3474 53.7206C51.3474 53.014 50.774 52.4406 50.0674 52.4406Z" fill="#607D8B"/>
</g>
</svg>
