<svg width="49" height="49" viewBox="0 0 49 49" fill="none" xmlns="http://www.w3.org/2000/svg">
<path d="M48.2623 35.3225C47.8016 34.7945 47.0279 34.5993 46.3471 34.8265C44.4387 35.4633 42.3687 35.7897 40.1887 35.7897C29.7598 35.7897 21.2771 27.8921 21.2771 18.1897C21.2771 12.3497 24.3751 6.91292 29.5638 3.64252C30.1518 3.27132 30.4338 2.60252 30.2756 1.95932C30.1174 1.31612 29.5501 0.829722 28.8452 0.733722C28.0406 0.624922 27.2394 0.589722 26.4348 0.589722C12.2132 0.589722 0.646118 11.3545 0.646118 24.5897C0.646118 37.8249 12.2132 48.5897 26.4348 48.5897C35.4608 48.5897 43.6719 44.3209 48.393 37.1721C48.7747 36.5929 48.7196 35.8537 48.2623 35.3225Z" fill="#B0BEC5"/>
</svg>
