<svg width="64" height="64" viewBox="0 0 64 64" fill="none" xmlns="http://www.w3.org/2000/svg">
<path d="M44.8 33.28C49.0415 33.28 52.48 29.8416 52.48 25.6C52.48 21.3585 49.0415 17.92 44.8 17.92C40.5584 17.92 37.12 21.3585 37.12 25.6C37.12 29.8416 40.5584 33.28 44.8 33.28Z" fill="#FFA500"/>
<path d="M42.0393 26.8821C41.0829 22.145 36.9336 18.688 32 18.688C27.9019 18.688 24.2237 21.1272 22.612 24.8341C18.7392 24.9262 15.616 28.1047 15.616 32C15.616 35.9527 18.8314 39.168 22.784 39.168H42.24C45.6274 39.168 48.384 36.4114 48.384 33.024C48.384 29.569 45.4697 26.794 42.0393 26.8821Z" fill="#57A0EE"/>
</svg>
