<svg width="48" height="48" viewBox="0 0 48 48" fill="none" xmlns="http://www.w3.org/2000/svg">
<path d="M33.6 24.96C36.7812 24.96 39.36 22.3812 39.36 19.2C39.36 16.0188 36.7812 13.44 33.6 13.44C30.4188 13.44 27.84 16.0188 27.84 19.2C27.84 22.3812 30.4188 24.96 33.6 24.96Z" fill="#FFA500"/>
<path d="M31.5295 20.1615C30.8122 16.6088 27.7002 14.016 24 14.016C20.9265 14.016 18.1678 15.8454 16.959 18.6255C14.0544 18.6946 11.712 21.0785 11.712 24C11.712 26.9645 14.1235 29.376 17.088 29.376H31.68C34.2205 29.376 36.288 27.3085 36.288 24.768C36.288 22.1768 34.1023 20.0955 31.5295 20.1615Z" fill="#57A0EE"/>
</svg>
